<svg width="180" height="203" viewBox="0 0 180 203" fill="none" xmlns="http://www.w3.org/2000/svg">
<path d="M90 202.979C87.205 202.979 84.5963 202.233 82.1739 200.927L57.3913 186.196C53.6646 184.145 55.528 183.399 56.646 183.026C61.677 181.348 62.6087 180.975 67.8261 177.991C68.3851 177.618 69.1304 177.805 69.6894 178.177L88.6957 189.552C89.441 189.925 90.3727 189.925 90.9317 189.552L165.28 146.477C166.025 146.104 166.398 145.358 166.398 144.425V58.4601C166.398 57.5277 166.025 56.7818 165.28 56.4089L90.9317 13.5195C90.1863 13.1465 89.2547 13.1465 88.6957 13.5195L14.3478 56.4089C13.6025 56.7818 13.2298 57.7142 13.2298 58.4601V144.425C13.2298 145.171 13.6025 146.104 14.3478 146.477L34.6584 158.225C45.6522 163.819 52.5466 157.292 52.5466 150.766V65.9191C52.5466 64.8003 53.4783 63.6814 54.7826 63.6814H64.2857C65.4037 63.6814 66.5217 64.6138 66.5217 65.9191V150.766C66.5217 165.497 58.5093 174.075 44.5342 174.075C40.2484 174.075 36.8944 174.075 27.3913 169.413L7.82609 158.225C2.98137 155.427 0 150.206 0 144.612V58.6466C0 53.0523 2.98137 47.831 7.82609 45.0339L82.1739 1.95799C86.8323 -0.652664 93.1677 -0.652664 97.8261 1.95799L172.174 45.0339C177.019 47.831 180 53.0523 180 58.6466V144.612C180 150.206 177.019 155.427 172.174 158.225L97.8261 201.3C95.4037 202.419 92.6087 202.979 90 202.979ZM112.919 143.866C80.3106 143.866 73.6025 128.948 73.6025 116.268C73.6025 115.149 74.5342 114.03 75.8385 114.03H85.528C86.646 114.03 87.5776 114.776 87.5776 115.895C89.0683 125.778 93.354 130.626 113.106 130.626C128.758 130.626 135.466 127.083 135.466 118.692C135.466 113.843 133.602 110.3 109.193 107.876C88.882 105.825 76.2112 101.35 76.2112 85.1261C76.2112 70.0216 88.882 61.0708 110.124 61.0708C133.975 61.0708 145.714 69.2757 147.205 87.1774C147.205 87.7368 147.019 88.2962 146.646 88.8556C146.273 89.2286 145.714 89.6015 145.155 89.6015H135.466C134.534 89.6015 133.602 88.8556 133.416 87.9233C131.18 77.6671 125.404 74.3105 110.124 74.3105C92.9814 74.3105 90.9317 80.2778 90.9317 84.7532C90.9317 90.161 93.354 91.8392 116.46 94.8229C139.379 97.8065 150.186 102.095 150.186 118.132C150 134.542 136.584 143.866 112.919 143.866Z" fill="#539E43"/>
</svg>
