<svg width="225" height="200" viewBox="0 0 225 200" fill="none" xmlns="http://www.w3.org/2000/svg">
<path d="M184.823 64.8237C182.491 64.0211 180.075 63.2617 177.587 62.5434C177.996 60.8745 178.371 59.2272 178.705 57.6079C184.183 31.0184 180.601 9.59773 168.371 2.54513C156.644 -4.21737 137.466 2.83363 118.097 19.6901C116.234 21.311 114.366 23.0271 112.499 24.8257C111.255 23.6357 110.013 22.4857 108.775 21.3858C88.4752 3.36179 68.128 -4.23378 55.9102 2.83923C44.1946 9.62134 40.7251 29.7588 45.6558 54.9579C46.132 57.3918 46.6885 59.8774 47.3179 62.4046C44.4382 63.222 41.6582 64.0935 38.9981 65.0206C15.1991 73.318 0 86.322 0 99.8106C0 113.742 16.3163 127.715 41.1048 136.188C43.061 136.856 45.0908 137.488 47.1827 138.089C46.5037 140.822 45.9131 143.5 45.4173 146.113C40.7159 170.874 44.3874 190.536 56.0719 197.275C68.1408 204.235 88.3959 197.081 108.119 179.841C109.678 178.478 111.243 177.033 112.81 175.518C114.841 177.474 116.87 179.325 118.887 181.062C137.991 197.502 156.86 204.14 168.534 197.382C180.591 190.402 184.509 169.281 179.422 143.583C179.033 141.621 178.581 139.616 178.073 137.575C179.496 137.155 180.892 136.721 182.254 136.269C208.024 127.731 224.791 113.928 224.791 99.8106C224.791 86.2732 209.102 73.1815 184.823 64.8237ZM179.234 127.154C178.005 127.561 176.743 127.954 175.458 128.336C172.613 119.329 168.774 109.752 164.075 99.8575C168.559 90.1984 172.25 80.7439 175.015 71.7959C177.315 72.4613 179.547 73.1631 181.697 73.9038C202.499 81.0648 215.188 91.6525 215.188 99.8106C215.188 108.501 201.484 119.781 179.234 127.154ZM170.001 145.448C172.251 156.812 172.572 167.085 171.082 175.117C169.743 182.333 167.051 187.145 163.722 189.072C156.638 193.172 141.488 187.842 125.15 173.782C123.277 172.171 121.39 170.45 119.498 168.628C125.832 161.701 132.162 153.648 138.34 144.704C149.207 143.74 159.474 142.163 168.785 140.011C169.243 141.861 169.65 143.675 170.001 145.448ZM76.6363 188.363C69.7149 190.807 64.2024 190.877 60.8702 188.956C53.7796 184.866 50.8318 169.08 54.8527 147.904C55.3132 145.478 55.8614 142.987 56.4932 140.441C65.7017 142.477 75.8932 143.942 86.7862 144.825C93.0062 153.577 99.5194 161.622 106.083 168.666C104.649 170.05 103.221 171.368 101.8 172.61C93.0786 180.234 84.3387 185.643 76.6363 188.363ZM44.2106 127.101C33.2496 123.354 24.1975 118.485 17.9928 113.172C12.4175 108.397 9.60259 103.657 9.60259 99.8106C9.60259 91.6253 21.806 81.1848 42.1591 74.0886C44.6287 73.2276 47.2139 72.4161 49.8967 71.6539C52.7096 80.8039 56.3996 90.3705 60.8526 100.044C56.342 109.862 52.5996 119.581 49.7591 128.838C47.8465 128.288 45.9935 127.71 44.2106 127.101ZM55.08 53.1137C50.8554 31.5238 53.6611 15.2371 60.7213 11.1502C68.2417 6.79646 84.8712 13.004 102.398 28.5668C103.519 29.5616 104.643 30.6027 105.771 31.6798C99.2401 38.6928 92.7865 46.6769 86.6218 55.3772C76.0497 56.3571 65.9297 57.9312 56.6252 60.039C56.0403 57.6859 55.5221 55.374 55.08 53.1137ZM152.045 77.0567C149.82 73.2148 147.537 69.4636 145.209 65.8148C152.381 66.7215 159.253 67.9251 165.706 69.398C163.769 75.6071 161.354 82.0991 158.511 88.7544C156.472 84.8832 154.316 80.98 152.045 77.0567ZM112.503 38.5428C116.932 43.3414 121.368 48.6991 125.731 54.5121C121.334 54.3045 116.883 54.1964 112.395 54.1964C107.95 54.1964 103.532 54.3021 99.1625 54.5061C103.53 48.7471 108.004 43.3967 112.503 38.5428ZM72.7074 77.1232C70.4856 80.976 68.3689 84.858 66.3619 88.7472C63.5654 82.1151 61.1731 75.5935 59.2188 69.2963C65.6324 67.8611 72.4718 66.6875 79.5984 65.798C77.2377 69.4804 74.9353 73.26 72.7074 77.1232ZM79.8037 134.508C72.4406 133.687 65.4984 132.574 59.0864 131.178C61.0718 124.768 63.517 118.108 66.3727 111.333C68.3849 115.219 70.51 119.103 72.7455 122.964C75.0226 126.897 77.3821 130.751 79.8037 134.508ZM112.768 161.756C108.217 156.845 103.677 151.413 99.2433 145.57C103.547 145.739 107.936 145.825 112.395 145.825C116.977 145.825 121.507 145.722 125.965 145.523C121.587 151.472 117.168 156.912 112.768 161.756ZM158.603 110.987C161.608 117.835 164.14 124.462 166.151 130.762C159.634 132.249 152.597 133.446 145.182 134.336C147.516 130.638 149.819 126.823 152.083 122.898C154.373 118.927 156.547 114.95 158.603 110.987ZM143.765 118.1C140.251 124.193 136.643 130.009 132.981 135.499C126.311 135.976 119.419 136.222 112.395 136.222C105.4 136.222 98.5955 136.005 92.0431 135.579C88.2331 130.017 84.5471 124.184 81.0557 118.153C77.5734 112.138 74.3692 106.073 71.4651 100.041C74.3684 93.9956 77.565 87.9233 81.0272 81.9195L81.0264 81.9207C84.4979 75.9008 88.1515 70.0958 91.9262 64.5685C98.6115 64.0631 105.467 63.7994 112.395 63.7994C119.354 63.7994 126.219 64.0651 132.902 64.5749C136.619 70.0618 140.248 75.848 143.733 81.8686C147.258 87.9569 150.496 93.9888 153.424 99.9047C150.504 105.922 147.274 112.015 143.765 118.1ZM163.575 10.8645C171.102 15.2055 174.029 32.7125 169.3 55.6697C168.998 57.1345 168.659 58.6266 168.29 60.1387C158.964 57.9868 148.836 56.3855 138.233 55.3908C132.057 46.5949 125.656 38.5984 119.231 31.6754C120.958 30.0137 122.683 28.4292 124.401 26.9339C140.997 12.4914 156.508 6.78926 163.575 10.8645ZM112.395 79.7376C123.481 79.7376 132.468 88.7244 132.468 99.8106C132.468 110.896 123.481 119.884 112.395 119.884C101.31 119.884 92.3224 110.896 92.3224 99.8106C92.3224 88.7244 101.31 79.7376 112.395 79.7376Z" fill="#00D8FF"/>
</svg>
